# xmcd CD database file
# Copyright (C) 1993-1996 Ti Kan
#
# Track frame offsets:
#	183
#	11885
#	23613
#	34495
#	46443
#	60520
#	74598
#	87358
#	97075
#	109580
#	119373
#	131485
#	147493
#	161223
#	176255
#	187040
#	200423
#	211420
#	224665
#	237523
#	249140
#	261280
#	272850
#	285320
#
# Disc length: 3967 seconds
#
# Revision: 1
# Processed by: cddbd v1.4b41PL1 Copyright (c) Steve Scherf et al.
# Submitted via: CDValet v3.01 - Copyright (c) 1997 Greg Leichner
#
DISCID=740f7d18
DTITLE=Howlin' Wolf - Chess Years - Disc 4/7
DYEAR=1900
DGENRE=
TTITLE0=Who Will Be Next
TTITLE1=I Have A Little Girl
TTITLE2=Come To Me Baby
TTITLE3=Don't Mess With Me Baby
TTITLE4=Somestack Lightnin'
TTITLE5=You Can't Be Beat
TTITLE6=I Asked For Water (She Gave Me Gasoline)
TTITLE7=So Glad
TTITLE8=Break Of Day
TTITLE9=Natchez Burnin'
TTITLE10=Going Back Home
TTITLE11=Bluebird
TTITLE12=My Life
TTITLE13=You Ought To Know
TTITLE14=Who's Been Talking
TTITLE15=Tell Me
TTITLE16=Somebody In My Home
TTITLE17=Nature
TTITLE18=Walk To Camp Hall
TTITLE19=Poor Boy
TTITLE20=My Baby Told Me
TTITLE21=Sittin' On Top Of The World
TTITLE22=Howlin' Blues
TTITLE23=I Better Go Now
EXTD=
EXTT0=
EXTT1=
EXTT2=
EXTT3=
EXTT4=
EXTT5=
EXTT6=
EXTT7=
EXTT8=
EXTT9=
EXTT10=
EXTT11=
EXTT12=
EXTT13=
EXTT14=
EXTT15=
EXTT16=
EXTT17=
EXTT18=
EXTT19=
EXTT20=
EXTT21=
EXTT22=
EXTT23=
PLAYORDER=
